<svg width="80" height="80" id="git" viewBox="0 0 80 80" xmlns="http://www.w3.org/2000/svg">
<path  d="M24.6419 8.50458C23.8234 8.10188 22.8333 8.43188 22.4201 9.24512C21.8322 10.4024 21.6291 11.8159 21.6019 13.1709C21.574 14.5563 21.7282 16.0407 21.9749 17.4445C22.2223 18.8525 22.5699 20.2196 22.9483 21.3799C23.1235 21.9171 23.3141 22.4374 23.5155 22.9103C20.272 25.9834 18.4416 31.1257 19.9853 36.1173C21.7316 41.764 27.5581 46.5976 38.8983 48.3146C39.8087 48.4523 40.658 47.8263 40.7957 46.9163C40.9337 46.006 40.3077 45.1566 39.3973 45.0187C28.7219 43.4023 24.3873 39.0693 23.1698 35.1326C21.9161 31.0785 23.7199 26.7923 26.5894 24.6743C27.3023 24.148 27.4788 23.1559 26.9912 22.4161C26.7822 22.099 26.4583 21.3916 26.1174 20.3463C25.7883 19.3373 25.4785 18.1228 25.2579 16.8676C25.0367 15.6084 24.9122 14.348 24.9345 13.2378C24.9405 12.9418 24.9567 12.6664 24.982 12.4121C26.1587 13.0257 27.3839 13.7044 28.5421 14.4236C30.3373 15.5382 31.8647 16.6852 32.8153 17.7669C33.3125 18.3326 34.1273 18.4946 34.803 18.1621C37.919 16.6289 41.8913 15.8333 45.7103 15.8333C49.559 15.8333 53.004 16.6398 55.1687 18.0602C55.5677 18.3219 56.06 18.4001 56.5203 18.2749C56.981 18.1497 57.3657 17.8331 57.577 17.4052C58.036 16.4771 59.258 15.3716 60.929 14.2194C61.9183 13.537 62.8937 12.9468 63.7843 12.4139C63.7973 12.4957 63.81 12.5823 63.8217 12.6739C63.9397 13.601 63.936 14.7655 63.8487 16.0463C63.692 18.3447 63.2857 20.7841 62.9987 22.5054C62.966 22.7007 62.935 22.8868 62.9063 23.0624C62.8523 23.3889 62.897 23.7241 63.0343 24.0252C64.6523 27.5706 65.7033 31.6545 64.4397 35.3296C63.2143 38.8923 59.6013 42.633 50.5703 45.057C49.965 45.2193 49.502 45.7076 49.372 46.3206C49.242 46.934 49.467 47.568 49.954 47.9623C52.493 50.0166 56.7887 55.138 59.7863 61.0513C60.5397 62.5376 60.2037 63.8463 59.299 64.7893C58.341 65.7877 56.678 66.414 54.8143 66.084C51.4493 65.4886 47.6543 65 44.2283 65C40.1037 65 34.7217 65.7107 30.1492 66.465C28.3187 66.7673 26.7826 66.1147 25.9504 65.153C25.1691 64.2497 24.9056 62.98 25.7474 61.5453C27.4507 58.6427 29.5073 56.0963 31.5946 54.727C31.978 54.4753 32.2409 54.0767 32.3212 53.6253C32.4015 53.1737 32.2922 52.709 32.019 52.3406C31.4611 51.5883 30.1792 50.2506 28.1132 49.4977C25.9912 48.724 23.2097 48.63 19.8358 50.1466C18.2282 50.869 16.9039 50.9653 15.857 50.7516C14.8044 50.5373 13.9162 49.9863 13.2217 49.227C11.7613 47.6306 11.3482 45.3613 11.9079 43.9463C12.2464 43.0903 11.8269 42.122 10.9709 41.7833C10.115 41.445 9.14667 41.8643 8.80814 42.7203C7.69677 45.5306 8.6043 49.118 10.7623 51.477C11.877 52.6956 13.3724 53.647 15.1911 54.018C17.0155 54.39 19.0501 54.1543 21.2025 53.1866C23.8445 51.9993 25.7258 52.175 26.9715 52.6293C27.4121 52.79 27.7941 52.9933 28.1175 53.2066C26.0893 54.994 24.3044 57.418 22.8724 59.8586C21.2954 62.546 21.7297 65.369 23.4295 67.3337C25.0785 69.2397 27.8071 70.23 30.692 69.754C35.2387 69.0037 40.3933 68.3333 44.2283 68.3333C47.376 68.3333 50.9547 68.7863 54.2333 69.3663C57.127 69.8783 59.931 68.9453 61.7043 67.097C63.531 65.193 64.1907 62.3673 62.7597 59.544C60.3013 54.695 56.9977 50.2833 54.2527 47.427C61.9957 44.813 66.0427 40.9183 67.5917 36.4133C69.2113 31.7036 67.9077 26.8354 66.277 23.1114C66.2803 23.0929 66.2833 23.0744 66.2863 23.0557C66.5713 21.3495 67.006 18.7455 67.1743 16.2729C67.268 14.8964 67.2853 13.4882 67.1283 12.2533C66.9807 11.0925 66.6413 9.74395 65.736 8.82818C65.1853 8.27152 64.322 8.17292 63.66 8.59118C63.35 8.78722 62.943 9.03088 62.4783 9.30925C61.4713 9.91232 60.1923 10.6782 59.0363 11.4754C57.8443 12.2975 56.5373 13.3082 55.567 14.4645C52.7967 13.1159 49.2603 12.5 45.7103 12.5C41.903 12.5 37.877 13.2071 34.4413 14.6638C33.2588 13.5522 31.7864 12.5143 30.3004 11.5917C28.3953 10.4088 26.357 9.34855 24.6419 8.50458Z" fill="black"/>
</svg>
