<svg width="110" id="rs" height="56" viewBox="0 0 110 56" fill="none" xmlns="http://www.w3.org/2000/svg">
<path d="M1.69749 2.26883L1.66012 -1.731L-2.33971 -1.69362L-2.30234 2.3062L1.69749 2.26883ZM13.2971 2.84407L11.8149 6.55932L11.8255 6.56352L13.2971 2.84407ZM14.8399 12.8516L12.3609 9.7124L12.3501 9.72093L12.3393 9.72953L14.8399 12.8516ZM12.6092 14.0893L11.2136 10.3406L10.9251 10.448L10.6564 10.5983L12.6092 14.0893ZM11.1674 14.8957L11.2048 18.8956L12.2276 18.886L13.1202 18.3867L11.1674 14.8957ZM4.65991 14.9565L0.660509 15.0255L0.728956 18.9935L4.69729 18.9564L4.65991 14.9565ZM4.60025 11.498L4.56288 7.49814L0.53131 7.53581L0.600848 11.567L4.60025 11.498ZM12.0658 10.0746L8.50103 8.26013L8.49372 8.27448L8.48653 8.28889L12.0658 10.0746ZM11.0159 5.99638L9.14374 9.53119L9.1873 9.55427L9.23142 9.57626L11.0159 5.99638ZM6.18664 5.68602L6.14927 1.68619L2.14945 1.72357L2.18682 5.72339L6.18664 5.68602ZM6.34032 22.1326L6.37769 26.1324L10.3775 26.095L10.3401 22.0952L6.34032 22.1326ZM1.88348 22.1742L-2.11635 22.2116L-2.07897 26.2114L1.92085 26.174L1.88348 22.1742ZM12.9025 22.0713L9.34959 23.9088L10.4798 26.0941L12.9399 26.0711L12.9025 22.0713ZM8.34937 13.2677L8.30037 9.26801L1.8185 9.34742L4.79644 15.1053L8.34937 13.2677ZM13.0522 13.2101L16.577 11.3192L15.4298 9.18066L13.0032 9.21039L13.0522 13.2101ZM17.6719 21.8216L21.6717 21.7842L21.6625 20.7989L21.1967 19.9307L17.6719 21.8216ZM17.6738 22.0267L17.7112 26.0265L21.711 25.9891L21.6736 21.9893L17.6738 22.0267ZM1.73486 6.26865L9.37711 6.19725L9.30236 -1.8024L1.66012 -1.731L1.73486 6.26865ZM9.37711 6.19725C10.5123 6.18664 11.292 6.35068 11.8149 6.5593L14.7794 -0.871163C13.0699 -1.55318 11.2114 -1.82024 9.30236 -1.8024L9.37711 6.19725ZM11.8255 6.56352C12.3062 6.75372 12.4981 6.95562 12.6032 7.10858L19.1966 2.57797C18.082 0.955788 16.5386 -0.175117 14.7687 -0.875381L11.8255 6.56352ZM12.6032 7.10858C12.6719 7.20853 12.8268 7.48822 12.8333 8.18067L20.8329 8.10592C20.8149 6.17348 20.3477 4.25316 19.1966 2.57797L12.6032 7.10858ZM12.8333 8.18067C12.8396 8.85784 12.7306 9.1802 12.6824 9.28674L19.9696 12.5877C20.6179 11.1564 20.8471 9.61615 20.8329 8.10592L12.8333 8.18067ZM12.6824 9.28674C12.5893 9.49232 12.4858 9.61375 12.3609 9.7124L17.3189 15.9907C18.4789 15.0747 19.3661 13.9199 19.9696 12.5877L12.6824 9.28674ZM12.3393 9.72953C12.0767 9.93987 11.7165 10.1534 11.2136 10.3406L14.0048 17.8379C15.2095 17.3894 16.3365 16.7778 17.3405 15.9736L12.3393 9.72953ZM10.6564 10.5983L9.21469 11.4048L13.1202 18.3867L14.5619 17.5802L10.6564 10.5983ZM11.1301 10.8959L4.62254 10.9567L4.69729 18.9564L11.2048 18.8956L11.1301 10.8959ZM8.65932 14.8876L8.59966 11.429L0.600848 11.567L0.660509 15.0255L8.65932 14.8876ZM4.63763 15.4978L9.47726 15.4526L9.40251 7.45292L4.56288 7.49814L4.63763 15.4978ZM9.47726 15.4526C10.5923 15.4422 11.8482 15.2348 13.0287 14.5811L9.15288 7.58263C9.30893 7.4962 9.42751 7.46327 9.47479 7.45265C9.51917 7.44267 9.50162 7.452 9.40251 7.45292L9.47726 15.4526ZM13.0287 14.5811C14.1459 13.9623 15.0561 13.0408 15.6451 11.8604L8.48653 8.28889C8.55647 8.14872 8.65649 8.00195 8.787 7.86712C8.91666 7.73319 9.04719 7.64116 9.15288 7.58263L13.0287 14.5811ZM15.6306 11.8891C16.195 10.7802 16.4035 9.61239 16.3931 8.50289L8.39345 8.57764C8.39374 8.60934 8.39044 8.58807 8.40359 8.52644C8.41727 8.46236 8.44589 8.36846 8.50103 8.26013L15.6306 11.8891ZM16.3931 8.50289C16.3828 7.39752 16.161 6.21875 15.5672 5.10413L8.50669 8.86573C8.37674 8.62182 8.39253 8.47993 8.39345 8.57764L16.3931 8.50289ZM15.5672 5.10413C14.9373 3.92187 13.9805 3.00473 12.8004 2.4165L9.23142 9.57626C9.11042 9.51595 8.96641 9.4216 8.82533 9.285C8.68377 9.14795 8.57857 9.00066 8.50669 8.86573L15.5672 5.10413ZM12.8881 2.46157C11.7027 1.83374 10.4514 1.646 9.33468 1.65643L9.40943 9.65608C9.60519 9.65425 9.44972 9.69325 9.14374 9.53119L12.8881 2.46157ZM9.33468 1.65643L6.14927 1.68619L6.22402 9.68584L9.40943 9.65608L9.33468 1.65643ZM2.18682 5.72339L2.34049 22.1699L10.3401 22.0952L10.1865 5.64865L2.18682 5.72339ZM6.30294 18.1327L1.84611 18.1744L1.92085 26.174L6.37769 26.1324L6.30294 18.1327ZM5.8833 22.1368L5.69731 2.23146L-2.30234 2.3062L-2.11635 22.2116L5.8833 22.1368ZM16.4555 20.2337L11.9023 11.4301L4.79644 15.1053L9.34959 23.9088L16.4555 20.2337ZM8.39837 17.2674L13.1012 17.2098L13.0032 9.21039L8.30037 9.26801L8.39837 17.2674ZM9.52734 15.101L14.1471 23.7125L21.1967 19.9307L16.577 11.3192L9.52734 15.101ZM13.6721 21.859L13.674 22.064L21.6736 21.9893L21.6717 21.7842L13.6721 21.859ZM17.6364 18.0268L12.8652 18.0714L12.9399 26.0711L17.7112 26.0265L17.6364 18.0268ZM57.9876 15.4974L54.2451 16.9094L54.253 16.9302L54.261 16.9509L57.9876 15.4974ZM57.4337 14.7506L60.0171 11.6967L57.4337 14.7506ZM56.3063 14.0775L54.5782 17.6849L54.6059 17.6982L54.6337 17.711L56.3063 14.0775ZM54.3992 13.3707L53.1932 17.1845L53.2149 17.1914L53.2368 17.198L54.3992 13.3707ZM51.8335 12.4102L50.1782 16.0516L50.203 16.0629L50.2279 16.0738L51.8335 12.4102ZM48.1687 9.42284L44.6695 11.3607L44.6798 11.3794L44.6904 11.398L48.1687 9.42284ZM48.1531 4.82903L44.6256 2.94322L48.1531 4.82903ZM49.709 3.06442L52.0684 6.29448L52.0827 6.28401L52.0969 6.27341L49.709 3.06442ZM52.0773 1.92115L53.1918 5.76276L53.2095 5.7576L53.2272 5.75229L52.0773 1.92115ZM58.9302 2.23994L57.2594 5.87431L57.2775 5.88259L57.2956 5.89069L58.9302 2.23994ZM61.5479 4.37574L58.2406 6.62554L58.2457 6.63307L58.2509 6.64058L61.5479 4.37574ZM62.5076 7.5798L62.545 11.5796L66.5448 11.5423L66.5074 7.54243L62.5076 7.5798ZM58.0781 7.62119L54.0783 7.65856L54.1156 11.6584L58.1155 11.621L58.0781 7.62119ZM57.723 6.20257L54.1941 8.08589L54.2188 8.13214L54.2447 8.17773L57.723 6.20257ZM56.7021 5.22769L54.8604 8.77845L54.8751 8.78611L54.89 8.79364L56.7021 5.22769ZM53.3658 5.20417L55.0033 8.85366L55.0208 8.84581L55.0382 8.83778L53.3658 5.20417ZM52.3752 6.00643L49.0401 3.79807L49.0194 3.8294L48.9992 3.86112L52.3752 6.00643ZM52.3117 7.98953L48.933 10.1306L48.9766 10.1994L49.023 10.2664L52.3117 7.98953ZM53.0568 8.70721L50.7623 11.9837L50.8152 12.0207L50.8692 12.056L53.0568 8.70721ZM55.898 9.88384L57.0684 6.0589L57.0374 6.04942L57.0062 6.04045L55.898 9.88384ZM58.7384 10.9784L56.983 14.5727L56.991 14.5766L56.9989 14.5804L58.7384 10.9784ZM62.131 14.1051L58.472 15.7212L58.4815 15.7425L58.4911 15.7637L62.131 14.1051ZM62.0918 18.6857L58.5069 16.9113L58.4975 16.9304L58.4882 16.9496L62.0918 18.6857ZM60.6316 20.4495L63.0468 23.638L63.0543 23.6324L60.6316 20.4495ZM52.3842 21.593L51.3739 25.4633L51.3908 25.4677L51.4077 25.472L52.3842 21.593ZM49.7207 20.4147L47.4887 23.7341L47.4977 23.7401L47.5066 23.746L49.7207 20.4147ZM47.8149 18.3816L44.3347 20.3536L44.3475 20.3761L44.3606 20.3985L47.8149 18.3816ZM47.0898 15.4078L47.0524 11.408L43.0526 11.4453L43.09 15.4452L47.0898 15.4078ZM51.5466 15.3661L55.5465 15.3288L55.5091 11.3289L51.5093 11.3663L51.5466 15.3661ZM51.8207 16.8949L48.1381 18.4564L48.1442 18.4708L48.1504 18.4852L51.8207 16.8949ZM52.5683 17.886L50.0988 21.0327L50.1203 21.0496L50.1421 21.0662L52.5683 17.886ZM56.9335 18.2827L58.5921 21.9226L58.6104 21.9143L58.6286 21.9058L56.9335 18.2827ZM62.1462 16.3609C62.1394 15.6302 62.0234 14.8367 61.7142 14.0439L54.261 16.9509C54.1573 16.6848 54.1471 16.4919 54.1466 16.4356L62.1462 16.3609ZM61.7301 14.0853C61.3435 13.0606 60.7004 12.2747 60.0171 11.6967L54.8504 17.8045C54.6999 17.6772 54.4261 17.3892 54.2451 16.9094L61.7301 14.0853ZM60.0171 11.6967C59.3696 11.149 58.6383 10.7475 57.9789 10.444L54.6337 17.711C54.7739 17.7755 54.8591 17.8224 54.9016 17.8477C54.9467 17.8747 54.9198 17.8632 54.8504 17.8045L60.0171 11.6967ZM58.0344 10.47C57.2979 10.1172 56.452 9.8137 55.5617 9.54329L53.2368 17.198C53.9187 17.4051 54.3442 17.5728 54.5782 17.6849L58.0344 10.47ZM55.6052 9.5568C54.8375 9.31403 54.1162 9.04332 53.4391 8.7466L50.2279 16.0738C51.18 16.4911 52.1691 16.8607 53.1932 17.1845L55.6052 9.5568ZM53.4888 8.7688C52.931 8.51521 52.4783 8.24083 52.1107 7.95858L47.2393 14.3044C48.1385 14.9947 49.1249 15.5728 50.1782 16.0516L53.4888 8.7688ZM52.1107 7.95858C51.8739 7.77679 51.7372 7.60641 51.647 7.44768L44.6904 11.398C45.3416 12.5449 46.2091 13.5136 47.2393 14.3044L52.1107 7.95858ZM51.6679 7.48493C51.6678 7.4848 51.6674 7.48398 51.6666 7.48227C51.6658 7.48055 51.6644 7.47751 51.6627 7.47292C51.6592 7.46401 51.6533 7.44684 51.6466 7.41933C51.6333 7.36446 51.6154 7.26053 51.6139 7.09367L43.6142 7.16842C43.6276 8.59365 43.9341 10.0329 44.6695 11.3607L51.6679 7.48493ZM51.6139 7.09367C51.6117 6.85602 51.6569 6.75937 51.6807 6.71484L44.6256 2.94322C43.9148 4.27281 43.6006 5.71083 43.6142 7.16842L51.6139 7.09367ZM51.6807 6.71484C51.7463 6.59204 51.8517 6.45275 52.0684 6.29448L47.3496 -0.16564C46.2264 0.654799 45.2945 1.69192 44.6256 2.94322L51.6807 6.71484ZM52.0969 6.27341C52.3358 6.09563 52.6809 5.91096 53.1918 5.76276L50.9628 -1.92046C49.6556 -1.54124 48.4218 -0.963725 47.321 -0.144574L52.0969 6.27341ZM53.2272 5.75229C53.725 5.60287 54.3458 5.50362 55.1187 5.4964L55.0439 -2.50325C53.6294 -2.49003 52.2475 -2.30623 50.9274 -1.90999L53.2272 5.75229ZM55.1187 5.4964C56.1017 5.48722 56.7821 5.65487 57.2594 5.87431L60.6009 -1.39442C58.8629 -2.19338 56.9774 -2.52131 55.0439 -2.50325L55.1187 5.4964ZM57.2956 5.89069C57.8022 6.11753 58.0683 6.37224 58.2406 6.62554L64.8552 2.12594C63.7706 0.531517 62.2916 -0.637634 60.5648 -1.41081L57.2956 5.89069ZM58.2509 6.64058C58.3836 6.83374 58.503 7.10833 58.5078 7.61717L66.5074 7.54243C66.4893 5.60867 65.969 3.74722 64.845 2.11089L58.2509 6.64058ZM62.4702 3.57997L58.0407 3.62136L58.1155 11.621L62.545 11.5796L62.4702 3.57997ZM62.0779 7.58382C62.0675 6.46682 61.8151 5.30818 61.2013 4.22741L54.2447 8.17773C54.1749 8.05475 54.1306 7.93558 54.1052 7.83443C54.0806 7.73584 54.0784 7.6726 54.0783 7.65856L62.0779 7.58382ZM61.2519 4.31925C60.6095 3.11554 59.6373 2.2324 58.5143 1.66173L54.89 8.79364C54.8027 8.74928 54.675 8.66932 54.5383 8.53878C54.3994 8.40612 54.2819 8.25045 54.1941 8.08589L61.2519 4.31925ZM58.5439 1.67693C57.3536 1.05951 56.0984 0.877672 54.9799 0.888123L55.0546 8.88777C55.1613 8.88678 55.1883 8.89622 55.1537 8.88924C55.1164 8.88172 55.008 8.85504 54.8604 8.77845L58.5439 1.67693ZM54.9799 0.888123C53.9411 0.897829 52.7943 1.06389 51.6935 1.57056L55.0382 8.83778C54.9282 8.88843 54.862 8.90072 54.8645 8.90023C54.8653 8.90007 54.8808 8.89716 54.9131 8.89418C54.9453 8.8912 54.992 8.88836 55.0546 8.88777L54.9799 0.888123ZM51.7284 1.55468C50.7235 2.00555 49.7509 2.72462 49.0401 3.79807L55.7104 8.2148C55.449 8.60953 55.1368 8.79377 55.0033 8.85366L51.7284 1.55468ZM48.9992 3.86112C48.3703 4.85083 48.0467 5.97878 48.0577 7.15424L56.0573 7.0795C56.0589 7.2476 56.037 7.43897 55.9798 7.63896C55.9225 7.83889 55.8402 8.01178 55.7513 8.15175L48.9992 3.86112ZM48.0577 7.15424C48.0674 8.19869 48.3569 9.22154 48.933 10.1306L55.6904 5.84842C55.9335 6.23197 56.0535 6.67305 56.0573 7.0795L48.0577 7.15424ZM49.023 10.2664C49.5301 10.9989 50.1537 11.5575 50.7623 11.9837L55.3512 5.4307C55.3176 5.40717 55.4445 5.48729 55.6005 5.7127L49.023 10.2664ZM50.8692 12.056C51.4612 12.4428 52.1 12.7587 52.7416 13.0231L55.7898 5.62658C55.4798 5.49885 55.3126 5.403 55.2444 5.35843L50.8692 12.056ZM52.7416 13.0231C53.3807 13.2865 54.0679 13.5191 54.7897 13.7272L57.0062 6.04045C56.5033 5.89542 56.1023 5.75538 55.7898 5.62658L52.7416 13.0231ZM54.7276 13.7088C55.6382 13.9874 56.3832 14.2798 56.983 14.5727L60.4937 7.38418C59.4454 6.87218 58.2967 6.43478 57.0684 6.0589L54.7276 13.7088ZM56.9989 14.5804C57.558 14.8504 57.9262 15.1091 58.1636 15.3232L63.5227 9.38354C62.6202 8.56923 61.5852 7.91125 60.4779 7.37648L56.9989 14.5804ZM58.1636 15.3232C58.3469 15.4886 58.4275 15.6203 58.472 15.7212L65.79 12.489C65.2572 11.2827 64.4792 10.2466 63.5227 9.38354L58.1636 15.3232ZM58.4911 15.7637C58.5236 15.835 58.5862 16.0109 58.5895 16.3668L66.5892 16.292C66.577 14.9892 66.3341 13.6822 65.7709 12.4465L58.4911 15.7637ZM58.5895 16.3668C58.5928 16.7195 58.5282 16.8682 58.5069 16.9113L65.6767 20.4602C66.3353 19.1296 66.6024 17.7075 66.5892 16.292L58.5895 16.3668ZM58.4882 16.9496C58.4476 17.0339 58.38 17.1364 58.209 17.2665L63.0543 23.6324C64.1685 22.7843 65.0743 21.711 65.6954 20.4218L58.4882 16.9496ZM58.2165 17.2609C58.0369 17.3969 57.7392 17.564 57.2465 17.7047L59.4434 25.3972C60.7325 25.029 61.9592 24.4618 63.0468 23.638L58.2165 17.2609ZM57.2465 17.7047C56.759 17.844 56.1269 17.9407 55.317 17.9482L55.3918 25.9479C56.7876 25.9348 58.1492 25.7668 59.4434 25.3972L57.2465 17.7047ZM55.317 17.9482C54.6581 17.9544 54.0086 17.8771 53.3606 17.714L51.4077 25.472C52.7149 25.801 54.0456 25.9604 55.3918 25.9479L55.317 17.9482ZM53.3944 17.7226C52.8215 17.5731 52.3443 17.3555 51.9347 17.0833L47.5066 23.746C48.693 24.5345 49.9915 25.1024 51.3739 25.4633L53.3944 17.7226ZM51.9526 17.0953C51.6668 16.9031 51.4484 16.6716 51.2692 16.3647L44.3606 20.3985C45.1448 21.7416 46.1969 22.8655 47.4887 23.7341L51.9526 17.0953ZM51.295 16.4097C51.2172 16.2724 51.0953 15.9743 51.0896 15.3704L43.09 15.4452C43.1058 17.1381 43.4672 18.8225 44.3347 20.3536L51.295 16.4097ZM47.1272 19.4076L51.584 19.366L51.5093 11.3663L47.0524 11.408L47.1272 19.4076ZM47.5468 15.4035C47.5558 16.3672 47.7016 17.427 48.1381 18.4564L55.5033 15.3334C55.5249 15.3843 55.5383 15.4249 55.5462 15.4521C55.5501 15.4657 55.5527 15.4761 55.5544 15.4831C55.556 15.49 55.5566 15.4936 55.5566 15.4937C55.5566 15.4937 55.556 15.4903 55.5551 15.4834C55.5542 15.4765 55.553 15.4661 55.5518 15.4523C55.5493 15.4243 55.547 15.3835 55.5465 15.3288L47.5468 15.4035ZM48.1504 18.4852C48.5676 19.4481 49.2078 20.3334 50.0988 21.0327L55.0378 14.7393C55.286 14.9342 55.4278 15.1587 55.491 15.3047L48.1504 18.4852ZM50.1421 21.0662C50.9935 21.7157 51.9391 22.111 52.8831 22.3238L54.6425 14.5197C54.6548 14.5224 54.804 14.5605 54.9944 14.7058L50.1421 21.0662ZM52.8831 22.3238C53.7031 22.5087 54.5375 22.5788 55.3602 22.5711L55.2855 14.5714C54.9598 14.5745 54.7542 14.5449 54.6425 14.5197L52.8831 22.3238ZM55.3602 22.5711C56.3388 22.5619 57.4898 22.4249 58.5921 21.9226L55.2749 14.6428C55.3549 14.6063 55.4182 14.5848 55.4586 14.5727C55.4989 14.5606 55.5205 14.5569 55.5193 14.5571C55.5181 14.5573 55.4987 14.5607 55.4584 14.5641C55.4181 14.5676 55.3611 14.5707 55.2855 14.5714L55.3602 22.5711ZM58.6286 21.9058C59.6229 21.4406 60.6057 20.6895 61.2883 19.5486L54.4234 15.441C54.7112 14.96 55.0791 14.7342 55.2384 14.6597L58.6286 21.9058ZM61.2883 19.5486C61.8803 18.5592 62.1566 17.4648 62.1462 16.3609L54.1466 16.4356C54.1453 16.2995 54.1613 16.1326 54.21 15.9486C54.2591 15.7635 54.3333 15.5916 54.4234 15.441L61.2883 19.5486ZM12.3058 48.9257L8.56328 50.3377L8.57112 50.3585L8.57918 50.3792L12.3058 48.9257ZM11.7519 48.1788L14.3352 45.1249L11.7519 48.1788ZM10.6244 47.5058L8.89638 51.1132L8.92401 51.1265L8.95185 51.1393L10.6244 47.5058ZM8.71737 46.7989L7.51134 50.6128L7.5331 50.6197L7.55493 50.6263L8.71737 46.7989ZM6.15164 45.8385L4.49631 49.4799L4.5211 49.4912L4.54605 49.5021L6.15164 45.8385ZM2.48685 42.8511L-1.01236 44.789L-1.00202 44.8077L-0.991474 44.8263L2.48685 42.8511ZM2.47127 38.2573L-1.05629 36.3715L2.47127 38.2573ZM4.02712 36.4927L6.38651 39.7228L6.40084 39.7123L6.41508 39.7017L4.02712 36.4927ZM6.39545 35.3494L7.50991 39.191L7.52767 39.1859L7.54539 39.1806L6.39545 35.3494ZM13.2483 35.6682L11.5776 39.3026L11.5956 39.3109L11.6137 39.319L13.2483 35.6682ZM15.8661 37.804L12.5587 40.0538L12.5639 40.0614L12.569 40.0689L15.8661 37.804ZM16.8257 41.0081L16.8631 45.0079L20.8629 44.9705L20.8256 40.9707L16.8257 41.0081ZM12.3962 41.0495L8.39641 41.0868L8.43378 45.0867L12.4336 45.0493L12.3962 41.0495ZM12.0412 39.6308L8.51227 41.5142L8.53695 41.5604L8.56284 41.606L12.0412 39.6308ZM11.0203 38.656L9.17853 42.2067L9.19329 42.2144L9.20812 42.2219L11.0203 38.656ZM7.68399 38.6325L9.32144 42.2819L9.33894 42.2741L9.35638 42.2661L7.68399 38.6325ZM6.6934 39.4347L3.35826 37.2263L3.33751 37.2577L3.31736 37.2894L6.6934 39.4347ZM6.62989 41.4178L3.25119 43.5589L3.29477 43.6277L3.34112 43.6946L6.62989 41.4178ZM7.37491 42.1355L5.08047 45.412L5.1333 45.449L5.1873 45.4843L7.37491 42.1355ZM10.2161 43.3121L11.3865 39.4872L11.3555 39.4777L11.3244 39.4687L10.2161 43.3121ZM13.0565 44.4067L11.3012 48.001L11.3091 48.0049L11.317 48.0087L13.0565 44.4067ZM16.4492 47.5334L12.7902 49.1495L12.7996 49.1708L12.8093 49.192L16.4492 47.5334ZM16.4099 52.114L12.8251 50.3396L12.8156 50.3587L12.8063 50.3779L16.4099 52.114ZM14.9498 53.8777L17.365 57.0663L17.3724 57.0606L14.9498 53.8777ZM6.70231 55.0212L5.69206 58.8916L5.70895 58.896L5.72588 58.9002L6.70231 55.0212ZM4.03884 53.843L1.8069 57.1624L1.81583 57.1684L1.82479 57.1743L4.03884 53.843ZM2.13304 51.8099L-1.34711 53.7818L-1.33432 53.8044L-1.32124 53.8268L2.13304 51.8099ZM1.40796 48.8361L1.37059 44.8362L-2.62924 44.8736L-2.59187 48.8734L1.40796 48.8361ZM5.8648 48.7944L9.86462 48.7571L9.82725 44.7572L5.82742 44.7946L5.8648 48.7944ZM6.13886 50.3232L2.45624 51.8847L2.46234 51.8991L2.46856 51.9134L6.13886 50.3232ZM6.88643 51.3143L4.41694 54.461L4.4385 54.4779L4.46028 54.4945L6.88643 51.3143ZM11.2517 51.711L12.9103 55.3509L12.9286 55.3426L12.9468 55.3341L11.2517 51.711ZM16.4644 49.7892C16.4576 49.0585 16.3416 48.265 16.0323 47.4722L8.57918 50.3792C8.47541 50.1131 8.46527 49.9201 8.46475 49.8639L16.4644 49.7892ZM16.0482 47.5136C15.6616 46.4889 15.0186 45.703 14.3352 45.1249L9.16854 51.2328C9.01806 51.1055 8.74429 50.8174 8.56328 50.3377L16.0482 47.5136ZM14.3352 45.1249C13.6878 44.5773 12.9564 44.1758 12.297 43.8722L8.95185 51.1393C9.09205 51.2038 9.17728 51.2507 9.21976 51.276C9.26488 51.303 9.23796 51.2915 9.16854 51.2328L14.3352 45.1249ZM12.3525 43.8983C11.616 43.5455 10.7701 43.242 9.87981 42.9716L7.55493 50.6263C8.23685 50.8334 8.66235 51.0011 8.89638 51.1132L12.3525 43.8983ZM9.92339 42.9851C9.15566 42.7423 8.4343 42.4716 7.75724 42.1749L4.54605 49.5021C5.49813 49.9194 6.48724 50.2889 7.51134 50.6128L9.92339 42.9851ZM7.80698 42.1971C7.24913 41.9435 6.7965 41.6691 6.42881 41.3869L1.55742 47.7327C2.45669 48.423 3.44308 49.0011 4.49631 49.4799L7.80698 42.1971ZM6.42881 41.3869C6.192 41.2051 6.05532 41.0347 5.96518 40.876L-0.991474 44.8263C-0.340213 45.9732 0.527281 46.9419 1.55742 47.7327L6.42881 41.3869ZM5.98607 40.9132C5.986 40.9131 5.98555 40.9123 5.98475 40.9105C5.98394 40.9088 5.9826 40.9058 5.98083 40.9012C5.97739 40.8923 5.97143 40.8751 5.96477 40.8476C5.95149 40.7927 5.9336 40.6888 5.93204 40.522L-2.06761 40.5967C-2.0543 42.0219 -1.74775 43.4612 -1.01236 44.789L5.98607 40.9132ZM5.93204 40.522C5.92982 40.2843 5.97504 40.1876 5.99884 40.1431L-1.05629 36.3715C-1.76708 37.7011 -2.08123 39.1391 -2.06761 40.5967L5.93204 40.522ZM5.99884 40.1431C6.06449 40.0203 6.16984 39.881 6.38651 39.7228L1.66773 33.2626C0.544532 34.0831 -0.387353 35.1202 -1.05629 36.3715L5.99884 40.1431ZM6.41508 39.7017C6.65399 39.5239 6.99905 39.3392 7.50991 39.191L5.28099 31.5078C3.97378 31.887 2.73995 32.4646 1.63916 33.2837L6.41508 39.7017ZM7.54539 39.1806C8.04319 39.0311 8.66391 38.9319 9.4368 38.9247L9.36205 30.925C7.94754 30.9382 6.5656 31.1221 5.2455 31.5183L7.54539 39.1806ZM9.4368 38.9247C10.4198 38.9155 11.1002 39.0831 11.5776 39.3026L14.9191 32.0339C13.1811 31.2349 11.2956 30.907 9.36205 30.925L9.4368 38.9247ZM11.6137 39.319C12.1203 39.5458 12.3864 39.8005 12.5587 40.0538L19.1734 35.5542C18.0888 33.9598 16.6098 32.7906 14.883 32.0175L11.6137 39.319ZM12.569 40.0689C12.7017 40.262 12.8211 40.5366 12.8259 41.0455L20.8256 40.9707C20.8075 39.0369 20.2871 37.1755 19.1631 35.5392L12.569 40.0689ZM16.7884 37.0083L12.3589 37.0496L12.4336 45.0493L16.8631 45.0079L16.7884 37.0083ZM16.3961 41.0121C16.3856 39.8951 16.1332 38.7365 15.5195 37.6557L8.56284 41.606C8.49301 41.483 8.44871 41.3639 8.42339 41.2627C8.39872 41.1641 8.39654 41.1009 8.39641 41.0868L16.3961 41.0121ZM15.5701 37.7475C14.9277 36.5438 13.9554 35.6607 12.8325 35.09L9.20812 42.2219C9.12083 42.1776 8.99313 42.0976 8.85644 41.9671C8.71752 41.8344 8.6001 41.6787 8.51227 41.5142L15.5701 37.7475ZM12.8621 35.1052C11.6717 34.4878 10.4165 34.306 9.29803 34.3164L9.37278 42.3161C9.4795 42.3151 9.50643 42.3245 9.47182 42.3175C9.43452 42.31 9.32618 42.2833 9.17853 42.2067L12.8621 35.1052ZM9.29803 34.3164C8.25928 34.3261 7.11246 34.4922 6.01161 34.9988L9.35638 42.2661C9.24634 42.3167 9.18011 42.329 9.18267 42.3285C9.18348 42.3284 9.19899 42.3254 9.23124 42.3225C9.26348 42.3195 9.31018 42.3166 9.37278 42.3161L9.29803 34.3164ZM6.04655 34.983C5.04167 35.4338 4.06905 36.1529 3.35826 37.2263L10.0285 41.6431C9.76716 42.0378 9.45493 42.222 9.32144 42.2819L6.04655 34.983ZM3.31736 37.2894C2.68844 38.2791 2.36482 39.4071 2.37581 40.5825L10.3755 40.5078C10.377 40.6759 10.3551 40.8672 10.2979 41.0672C10.2407 41.2672 10.1584 41.4401 10.0694 41.58L3.31736 37.2894ZM2.37581 40.5825C2.38557 41.627 2.67508 42.6498 3.25119 43.5589L10.0086 39.2767C10.2517 39.6603 10.3717 40.1013 10.3755 40.5078L2.37581 40.5825ZM3.34112 43.6946C3.84828 44.4272 4.47182 44.9858 5.08047 45.412L9.66935 38.859C9.63575 38.8354 9.76261 38.9156 9.91867 39.141L3.34112 43.6946ZM5.1873 45.4843C5.77938 45.8711 6.41812 46.187 7.05979 46.4514L10.1079 39.0549C9.79797 38.9271 9.63075 38.8313 9.56252 38.7867L5.1873 45.4843ZM7.05979 46.4514C7.69888 46.7148 8.38605 46.9474 9.10783 47.1555L11.3244 39.4687C10.8215 39.3237 10.4205 39.1837 10.1079 39.0549L7.05979 46.4514ZM9.04571 47.1371C9.95635 47.4157 10.7013 47.708 11.3012 48.001L14.8119 40.8125C13.7635 40.3005 12.6149 39.8631 11.3865 39.4872L9.04571 47.1371ZM11.317 48.0087C11.8761 48.2787 12.2444 48.5373 12.4817 48.7515L17.8408 42.8118C16.9383 41.9975 15.9034 41.3395 14.796 40.8048L11.317 48.0087ZM12.4817 48.7515C12.6651 48.9169 12.7456 49.0486 12.7902 49.1495L20.1082 45.9173C19.5754 44.711 18.7973 43.6748 17.8408 42.8118L12.4817 48.7515ZM12.8093 49.192C12.8417 49.2632 12.9043 49.4392 12.9077 49.7951L20.9073 49.7203C20.8951 48.4175 20.6522 47.1105 20.0891 45.8747L12.8093 49.192ZM12.9077 49.7951C12.911 50.1478 12.8464 50.2965 12.8251 50.3396L19.9948 53.8885C20.6534 52.5579 20.9205 51.1357 20.9073 49.7203L12.9077 49.7951ZM12.8063 50.3779C12.7657 50.4622 12.6981 50.5647 12.5272 50.6948L17.3724 57.0606C18.4866 56.2126 19.3925 55.1393 20.0135 53.8501L12.8063 50.3779ZM12.5346 50.6892C12.3551 50.8252 12.0573 50.9923 11.5647 51.133L13.7616 58.8254C15.0507 58.4573 16.2774 57.8901 17.365 57.0663L12.5346 50.6892ZM11.5647 51.133C11.0771 51.2722 10.445 51.3689 9.63518 51.3765L9.70993 59.3761C11.1057 59.3631 12.4673 59.1951 13.7616 58.8254L11.5647 51.133ZM9.63518 51.3765C8.97622 51.3827 8.32679 51.3054 7.67874 51.1423L5.72588 58.9002C7.03303 59.2293 8.36377 59.3887 9.70993 59.3761L9.63518 51.3765ZM7.71255 51.1509C7.13963 51.0014 6.66242 50.7838 6.25288 50.5116L1.82479 57.1743C3.01118 57.9628 4.30961 58.5307 5.69206 58.8916L7.71255 51.1509ZM6.27078 50.5236C5.98492 50.3313 5.76651 50.0999 5.58732 49.793L-1.32124 53.8268C-0.537054 55.1698 0.515072 56.2937 1.8069 57.1624L6.27078 50.5236ZM5.61319 49.8379C5.5354 49.7007 5.41343 49.4026 5.40778 48.7987L-2.59187 48.8734C-2.57605 50.5664 -2.21463 52.2508 -1.34711 53.7818L5.61319 49.8379ZM1.44533 52.8359L5.90217 52.7942L5.82742 44.7946L1.37059 44.8362L1.44533 52.8359ZM1.86497 48.8318C1.87397 49.7955 2.01974 50.8553 2.45624 51.8847L9.82147 48.7617C9.84308 48.8126 9.85646 48.8531 9.86433 48.8803C9.86828 48.894 9.87089 48.9044 9.8725 48.9113C9.87411 48.9183 9.87475 48.9219 9.87476 48.9219C9.87476 48.922 9.87417 48.9186 9.87325 48.9117C9.87234 48.9047 9.87115 48.8944 9.86994 48.8806C9.8675 48.8526 9.86513 48.8118 9.86462 48.7571L1.86497 48.8318ZM2.46856 51.9134C2.88579 52.8764 3.52592 53.7617 4.41694 54.461L9.35592 48.1676C9.60418 48.3624 9.74593 48.587 9.80916 48.7329L2.46856 51.9134ZM4.46028 54.4945C5.31166 55.144 6.25725 55.5393 7.2012 55.7521L8.96068 47.948C8.97294 47.9507 9.1222 47.9888 9.31259 48.1341L4.46028 54.4945ZM7.2012 55.7521C8.02127 55.937 8.85564 56.007 9.67837 55.9993L9.60363 47.9997C9.27798 48.0027 9.07231 47.9731 8.96068 47.948L7.2012 55.7521ZM9.67837 55.9993C10.6569 55.9902 11.808 55.8532 12.9103 55.3509L9.59302 48.0711C9.67309 48.0346 9.73633 48.013 9.77674 48.001C9.81707 47.9889 9.83866 47.9852 9.83741 47.9854C9.83625 47.9856 9.81684 47.989 9.7765 47.9924C9.73629 47.9958 9.67926 47.999 9.60363 47.9997L9.67837 55.9993ZM12.9468 55.3341C13.941 54.8689 14.9238 54.1178 15.6065 52.9769L8.74156 48.8692C9.02932 48.3883 9.39723 48.1625 9.55656 48.0879L12.9468 55.3341ZM15.6065 52.9769C16.1985 51.9875 16.4747 50.8931 16.4644 49.7892L8.46475 49.8639C8.46347 49.7278 8.47942 49.5609 8.52818 49.3769C8.57723 49.1918 8.65145 49.0198 8.74156 48.8692L15.6065 52.9769ZM30.9622 48.2318L30.9248 44.232L27.1534 44.2672L26.9671 48.0342L30.9622 48.2318ZM35.3917 48.1904L39.3878 48.3661L39.5732 44.1511L35.3543 44.1906L35.3917 48.1904ZM34.3045 51.8238L30.9206 49.6908L30.9159 49.6983L34.3045 51.8238ZM31.5521 54.2968L33.3523 57.8689L33.3633 57.8633L33.3743 57.8577L31.5521 54.2968ZM21.187 52.6846L18.1602 55.2998L18.1755 55.3175L18.191 55.335L21.187 52.6846ZM19.5182 49.6786L15.7148 50.9173L15.7205 50.9349L15.7264 50.9524L19.5182 49.6786ZM34.1627 38.1116L30.7495 40.1972L30.756 40.2079L30.7626 40.2186L34.1627 38.1116ZM35.3589 41.751L35.3962 45.7508L39.7868 45.7098L39.3379 41.3421L35.3589 41.751ZM30.9157 41.7925L26.9221 42.0178L27.1371 45.828L30.9531 45.7923L30.9157 41.7925ZM30.46 39.8416L26.8624 41.5902L26.8683 41.6022L26.8742 41.6142L30.46 39.8416ZM25.4854 38.6165L23.6902 35.042L23.6767 35.0488L23.6632 35.0557L25.4854 38.6165ZM24.3063 39.735L20.9118 37.6191L20.898 37.6413L20.8845 37.6636L24.3063 39.735ZM23.627 41.6555L27.5548 42.4123L27.5565 42.4033L23.627 41.6555ZM24.3362 50.2489L20.9256 52.3388L20.9395 52.3614L20.9536 52.3838L24.3362 50.2489ZM25.5361 51.3588L23.7538 54.9398L25.5361 51.3588ZM29.282 51.3238L31.004 54.9342L31.0294 54.9221L31.0546 54.9096L29.282 51.3238ZM30.9996 52.2316L35.4291 52.1902L35.3543 44.1906L30.9248 44.232L30.9996 52.2316ZM31.3956 48.0147C31.3629 48.7581 31.1788 49.2812 30.9207 49.6908L37.6883 53.9567C38.7595 52.2575 39.3002 50.3583 39.3878 48.3661L31.3956 48.0147ZM30.9159 49.6983C30.6718 50.0876 30.3163 50.4359 29.7299 50.736L33.3743 57.8577C35.1465 56.9508 36.626 55.6504 37.6931 53.9492L30.9159 49.6983ZM29.7519 50.7248C29.2331 50.9863 28.4585 51.2006 27.2985 51.2115L27.3732 59.2111C29.476 59.1915 31.5123 58.7962 33.3523 57.8689L29.7519 50.7248ZM27.2985 51.2115C26.4552 51.2193 25.8418 51.0819 25.3867 50.8896L22.2728 58.2586C23.8858 58.9402 25.6098 59.2276 27.3732 59.2111L27.2985 51.2115ZM25.3867 50.8896C24.891 50.6801 24.5054 50.3989 24.1829 50.0343L18.191 55.335C19.324 56.6157 20.7003 57.5942 22.2728 58.2586L25.3867 50.8896ZM24.2137 50.0695C23.8745 49.6769 23.5588 49.1457 23.3099 48.4048L15.7264 50.9524C16.2651 52.5559 17.062 54.0286 18.1602 55.2998L24.2137 50.0695ZM23.3216 48.4399C23.0851 47.7139 22.9309 46.7956 22.9201 45.6408L14.9204 45.7155C14.9374 47.5319 15.1818 49.2806 15.7148 50.9173L23.3216 48.4399ZM22.9201 45.6408L22.9087 44.424L14.909 44.4988L14.9204 45.7155L22.9201 45.6408ZM22.9087 44.424C22.8981 43.2863 23.04 42.384 23.2685 41.6709L15.6501 39.2296C15.1169 40.8935 14.8919 42.6653 14.909 44.4988L22.9087 44.424ZM23.2685 41.6709C23.5075 40.9251 23.8181 40.3912 24.1553 39.9959L18.0697 34.8031C16.9644 36.0985 16.1728 37.5983 15.6501 39.2296L23.2685 41.6709ZM24.1553 39.9959C24.4909 39.6027 24.8794 39.311 25.3568 39.0968L22.0819 31.7978C20.5262 32.4959 19.1767 33.5057 18.0697 34.8031L24.1553 39.9959ZM25.3568 39.0968C25.8089 38.894 26.3913 38.7526 27.1683 38.7453L27.0936 30.7457C25.3551 30.7619 23.6631 31.0884 22.0819 31.7978L25.3568 39.0968ZM27.1683 38.7453C28.3977 38.7338 29.1549 38.9493 29.6105 39.1824L33.2541 32.0603C31.3651 31.0939 29.2546 30.7255 27.0936 30.7457L27.1683 38.7453ZM29.6105 39.1824C30.1674 39.4673 30.5091 39.8039 30.7495 40.1972L37.5759 36.0259C36.5203 34.2985 35.0419 32.9749 33.2541 32.0603L29.6105 39.1824ZM30.7626 40.2186C31.0696 40.7139 31.2951 41.335 31.3798 42.1599L39.3379 41.3421C39.1419 39.4351 38.57 37.6299 37.5628 36.0046L30.7626 40.2186ZM35.3215 37.7511L30.8783 37.7927L30.9531 45.7923L35.3962 45.7508L35.3215 37.7511ZM34.9094 41.5671C34.8446 40.4189 34.6081 39.2065 34.0458 38.069L26.8742 41.6142C26.8513 41.5679 26.8583 41.5672 26.8739 41.6339C26.8897 41.7016 26.9112 41.8253 26.9221 42.0178L34.9094 41.5671ZM34.0575 38.0929C33.4148 36.7708 32.3893 35.7291 31.0773 35.0659L27.4684 42.2057C27.3678 42.1548 27.2411 42.0704 27.1176 41.9449C26.9941 41.8195 26.9117 41.6916 26.8624 41.5902L34.0575 38.0929ZM31.0773 35.0659C29.7703 34.4053 28.3626 34.234 27.1263 34.2455L27.201 42.2452C27.4364 42.243 27.5685 42.2607 27.619 42.27C27.669 42.2793 27.6027 42.2736 27.4684 42.2057L31.0773 35.0659ZM27.1263 34.2455C25.9901 34.2561 24.8092 34.48 23.6902 35.042L27.2806 42.1911C27.2069 42.228 27.1518 42.2433 27.1294 42.2482C27.109 42.2527 27.1291 42.2459 27.201 42.2452L27.1263 34.2455ZM23.6632 35.0557C22.4703 35.6661 21.5619 36.5761 20.9118 37.6191L27.7009 41.8509C27.6956 41.8594 27.6621 41.9105 27.5898 41.9792C27.5153 42.0498 27.4194 42.1201 27.3076 42.1774L23.6632 35.0557ZM20.8845 37.6636C20.2645 38.6878 19.9058 39.8132 19.6975 40.9077L27.5565 42.4033C27.6436 41.9455 27.7378 41.7905 27.7282 41.8064L20.8845 37.6636ZM19.6992 40.8987C19.4869 42.0007 19.4087 43.1923 19.4203 44.4293L27.42 44.3546C27.4118 43.4771 27.4715 42.8444 27.5548 42.4123L19.6992 40.8987ZM19.4203 44.4293L19.4319 45.6734L27.4316 45.5986L27.42 44.3546L19.4203 44.4293ZM19.4319 45.6734C19.4432 46.8818 19.5318 48.0347 19.7313 49.0946L27.5932 47.6148C27.505 47.1461 27.4399 46.4865 27.4316 45.5986L19.4319 45.6734ZM19.7313 49.0946C19.9371 50.1881 20.2975 51.3137 20.9256 52.3388L27.7468 48.1589C27.764 48.187 27.6751 48.0499 27.5932 47.6148L19.7313 49.0946ZM20.9536 52.3838C21.6239 53.4458 22.556 54.3436 23.7538 54.9398L27.3184 47.7778C27.4178 47.8273 27.5106 47.8919 27.5883 47.9638C27.6644 48.0342 27.705 48.0919 27.7188 48.1139L20.9536 52.3838ZM23.7538 54.9398C24.939 55.5297 26.187 55.722 27.3405 55.7113L27.2658 47.7116C27.1538 47.7127 27.1118 47.7029 27.1247 47.7055C27.1401 47.7086 27.2125 47.7251 27.3184 47.7778L23.7538 54.9398ZM27.3405 55.7113C28.5183 55.7003 29.7976 55.5096 31.004 54.9342L27.5601 47.7134C27.6421 47.6743 27.6728 47.6739 27.6236 47.6836C27.5732 47.6934 27.4591 47.7098 27.2658 47.7116L27.3405 55.7113ZM31.0546 54.9096C32.3174 54.2853 33.3314 53.3138 34.0056 52.0685L26.9705 48.2595C27.0189 48.1702 27.0959 48.0611 27.2056 47.9556C27.3152 47.8502 27.4246 47.7799 27.5095 47.738L31.0546 54.9096ZM34.0056 52.0685C34.646 50.8856 34.8987 49.6137 34.9573 48.4294L26.9671 48.0342C26.9584 48.2088 26.9392 48.3063 26.9302 48.3429C26.9216 48.3778 26.9265 48.3408 26.9705 48.2595L34.0056 52.0685ZM51.1742 42.82L55.1741 42.7827L55.1367 38.7828L51.1369 38.8202L51.1742 42.82ZM51.2064 46.2652L51.2438 50.265L55.2436 50.2277L55.2063 46.2278L51.2064 46.2652ZM40.8983 46.3615L36.8985 46.3989L36.9358 50.3987L40.9357 50.3613L40.8983 46.3615ZM40.8661 42.9164L40.8287 38.9165L36.8289 38.9539L36.8663 42.9537L40.8661 42.9164ZM42.1994 34.8918L46.1992 34.8545L46.1618 30.8546L42.162 30.892L42.1994 34.8918ZM42.3854 54.7972L42.4227 58.797L46.4226 58.7597L46.3852 54.7598L42.3854 54.7972ZM37.9285 54.8389L33.9287 54.8762L33.9661 58.8761L37.9659 58.8387L37.9285 54.8389ZM37.7425 34.9335L37.7052 30.9337L33.7053 30.971L33.7427 34.9708L37.7425 34.9335ZM54.1754 34.7799L58.1752 34.7426L58.1379 30.7427L54.138 30.7801L54.1754 34.7799ZM54.3614 54.6853L54.3988 58.6851L58.3986 58.6478L58.3612 54.6479L54.3614 54.6853ZM49.9182 54.7268L45.9184 54.7642L45.9558 58.764L49.9556 58.7267L49.9182 54.7268ZM49.7323 34.8214L49.6949 30.8216L45.6951 30.859L45.7324 34.8588L49.7323 34.8214ZM47.1744 42.8574L47.2066 46.3026L55.2063 46.2278L55.1741 42.7827L47.1744 42.8574ZM51.1691 42.2654L40.8609 42.3617L40.9357 50.3613L51.2438 50.265L51.1691 42.2654ZM44.8981 46.3241L44.8659 42.879L36.8663 42.9537L36.8985 46.3989L44.8981 46.3241ZM40.9035 46.9162L51.2116 46.8199L51.1369 38.8202L40.8287 38.9165L40.9035 46.9162ZM38.1996 34.9292L38.3855 54.8346L46.3852 54.7598L46.1992 34.8545L38.1996 34.9292ZM42.348 50.7974L37.8912 50.839L37.9659 58.8387L42.4227 58.797L42.348 50.7974ZM41.9284 54.8015L41.7424 34.8961L33.7427 34.9708L33.9287 54.8762L41.9284 54.8015ZM37.7799 38.9333L42.2368 38.8917L42.162 30.892L37.7052 30.9337L37.7799 38.9333ZM50.1756 34.8173L50.3616 54.7227L58.3612 54.6479L58.1752 34.7426L50.1756 34.8173ZM54.324 50.6855L49.8809 50.727L49.9556 58.7267L54.3988 58.6851L54.324 50.6855ZM53.9181 54.6895L53.7321 34.7841L45.7324 34.8588L45.9184 54.7642L53.9181 54.6895ZM49.7696 38.8213L54.2128 38.7798L54.138 30.7801L49.6949 30.8216L49.7696 38.8213ZM73.5872 49.0777L69.7978 47.7967L69.7935 47.8096L69.7893 47.8224L73.5872 49.0777ZM71.8523 52.1702L68.859 49.5169L68.8511 49.5258L68.8433 49.5348L71.8523 52.1702ZM69.1637 54.1505L70.7775 57.8105L70.7852 57.8071L70.7928 57.8037L69.1637 54.1505ZM62.2324 54.2153L60.6718 57.8983L60.6853 57.904L60.6989 57.9096L62.2324 54.2153ZM59.4798 52.2858L56.5366 54.9946L56.5446 55.0033L56.5526 55.0119L59.4798 52.2858ZM57.5894 40.1897L61.3788 41.4706L61.3817 41.4618L57.5894 40.1897ZM59.3241 37.0835L56.3308 34.4302L56.3229 34.4391L56.315 34.4481L59.3241 37.0835ZM62.0266 35.1167L63.6288 38.7818L63.6423 38.7759L63.6557 38.77L62.0266 35.1167ZM68.9716 35.0519L67.411 38.7349L67.4245 38.7406L67.4381 38.7462L68.9716 35.0519ZM71.6966 36.9679L68.7373 39.6591L68.7453 39.6679L68.7534 39.6766L71.6966 36.9679ZM73.5028 40.041L69.7349 41.3837L69.738 41.3925L73.5028 40.041ZM69.3731 41.4468L65.4857 42.3892L65.4882 42.3993L69.3731 41.4468ZM67.2656 38.3082L65.4097 41.8516L65.4345 41.8646L65.4594 41.8772L67.2656 38.3082ZM63.7657 38.3409L65.6644 41.8616L65.6892 41.8482L65.7139 41.8344L63.7657 38.3409ZM62.5054 39.5422L59.1393 37.3814L59.1261 37.4019L59.1132 37.4225L62.5054 39.5422ZM61.7446 41.5181L57.8402 40.6485L57.8365 40.6652L57.8329 40.682L61.7446 41.5181ZM61.8032 47.7932L57.9056 48.6926L57.9118 48.7192L57.9183 48.7457L61.8032 47.7932ZM63.8973 50.9593L62.0148 54.4887L62.0281 54.4958L62.0415 54.5028L63.8973 50.9593ZM67.3972 50.9266L65.4754 47.4185L65.4622 47.4258L65.449 47.4331L67.3972 50.9266ZM69.4318 47.7219L65.5274 46.8523L65.5237 46.8691L65.5201 46.8859L69.4318 47.7219ZM70.1699 44.1465L70.1782 45.0352L78.1778 44.9604L78.1695 44.0718L70.1699 44.1465ZM70.1782 45.0352C70.1889 46.1818 70.0383 47.0855 69.7978 47.7967L77.3765 50.3587C77.9521 48.656 78.1954 46.8397 78.1778 44.9604L70.1782 45.0352ZM69.7893 47.8224C69.5416 48.5719 69.2177 49.1123 68.859 49.5169L74.8457 54.8235C76.0023 53.5186 76.835 51.9973 77.3851 50.333L69.7893 47.8224ZM68.8433 49.5348C68.4781 49.9518 68.0536 50.2658 67.5346 50.4973L70.7928 57.8037C72.3616 57.1042 73.7295 56.0981 74.8614 54.8056L68.8433 49.5348ZM67.5499 50.4905C67.0685 50.7028 66.4628 50.8455 65.6737 50.8529L65.7485 58.8525C67.4931 58.8362 69.1892 58.5108 70.7775 57.8105L67.5499 50.4905ZM65.6737 50.8529C64.8853 50.8603 64.2675 50.7291 63.7659 50.5209L60.6989 57.9096C62.3018 58.575 64.0032 58.8688 65.7485 58.8525L65.6737 50.8529ZM63.7929 50.5322C63.2608 50.3068 62.8083 49.9907 62.4071 49.5598L56.5526 55.0119C57.7166 56.2618 59.0991 57.2319 60.6718 57.8983L63.7929 50.5322ZM62.4231 49.5771C62.0508 49.1726 61.7094 48.6294 61.4386 47.8749L53.9091 50.5779C54.4992 52.2217 55.3618 53.7181 56.5366 54.9946L62.4231 49.5771ZM61.4386 47.8749C61.1849 47.1682 61.0174 46.2675 61.0067 45.1209L53.0071 45.1956C53.0246 47.0748 53.3018 48.8863 53.9091 50.5779L61.4386 47.8749ZM61.0067 45.1209L60.9984 44.2322L52.9988 44.307L53.0071 45.1956L61.0067 45.1209ZM60.9984 44.2322C60.9877 43.0856 61.1383 42.1819 61.3787 41.4706L53.8 38.9087C53.2245 40.6114 52.9812 42.4277 52.9988 44.307L60.9984 44.2322ZM61.3817 41.4618C61.643 40.6829 61.9755 40.1273 62.3332 39.7189L56.315 34.4481C55.1756 35.7491 54.3517 37.2642 53.7971 38.9176L61.3817 41.4618ZM62.3174 39.7368C62.6913 39.315 63.1178 39.0052 63.6288 38.7818L60.4243 31.4517C58.8474 32.1411 57.4723 33.1424 56.3308 34.4302L62.3174 39.7368ZM63.6557 38.77C64.1465 38.5511 64.7521 38.4078 65.5301 38.4006L65.4553 30.4009C63.6995 30.4173 61.9944 30.7514 60.3975 31.4635L63.6557 38.77ZM65.5301 38.4006C66.308 38.3933 66.9162 38.5252 67.411 38.7349L70.5321 31.3688C68.9222 30.6867 67.2111 30.3845 65.4553 30.4009L65.5301 38.4006ZM67.4381 38.7462C67.9487 38.9582 68.3698 39.255 68.7373 39.6591L74.6559 34.2767C73.4946 32.9997 72.099 32.0191 70.5051 31.3575L67.4381 38.7462ZM68.7534 39.6766C69.1209 40.0759 69.4625 40.6194 69.7349 41.3837L77.2707 38.6983C76.6819 37.0461 75.8194 35.5408 74.6399 34.2591L68.7534 39.6766ZM69.738 41.3925C69.9917 42.0992 70.1592 42.9999 70.1699 44.1465L78.1695 44.0718C78.152 42.1925 77.8748 40.3811 77.2675 38.6894L69.738 41.3925ZM73.68 45.0024L73.6714 44.0865L65.6718 44.1612L65.6803 45.0772L73.68 45.0024ZM73.6714 44.0865C73.6598 42.8452 73.5377 41.6349 73.2581 40.4943L65.4882 42.3993C65.5876 42.8048 65.6645 43.3792 65.6718 44.1612L73.6714 44.0865ZM73.2605 40.5044C72.9891 39.3848 72.5599 38.2687 71.887 37.2623L65.2366 41.7088C65.2663 41.7532 65.378 41.9446 65.4857 42.3892L73.2605 40.5044ZM71.887 37.2623C71.1925 36.2235 70.2579 35.3395 69.0717 34.7392L65.4594 41.8772C65.3905 41.8423 65.3304 41.7995 65.2848 41.7581C65.2407 41.718 65.2272 41.6948 65.2366 41.7088L71.887 37.2623ZM69.1215 34.7648C67.9587 34.1557 66.7155 33.903 65.4881 33.9144L65.5629 41.9141C65.6038 41.9137 65.5999 41.9179 65.5627 41.9095C65.5235 41.9006 65.4688 41.8825 65.4097 41.8516L69.1215 34.7648ZM65.4881 33.9144C64.2658 33.9259 62.9984 34.1889 61.8176 34.8473L65.7139 41.8344C65.6298 41.8813 65.5603 41.9038 65.5221 41.913C65.4867 41.9216 65.4955 41.9147 65.5629 41.9141L65.4881 33.9144ZM61.8671 34.8202C60.7055 35.4466 59.8037 36.3462 59.1393 37.3814L65.8716 41.7029C65.8853 41.6816 65.8764 41.7002 65.8364 41.7384C65.7947 41.778 65.7361 41.8229 65.6644 41.8616L61.8671 34.8202ZM59.1132 37.4225C58.4834 38.4304 58.0872 39.5395 57.8402 40.6485L65.6489 42.3877C65.7518 41.9256 65.8629 41.7175 65.8976 41.6618L59.1132 37.4225ZM57.8329 40.682C57.5916 41.8111 57.4985 43.0081 57.51 44.2375L65.5097 44.1627C65.5023 43.3688 65.5657 42.7778 65.6562 42.3542L57.8329 40.682ZM57.51 44.2375L57.5186 45.1534L65.5182 45.0787L65.5097 44.1627L57.51 44.2375ZM57.5186 45.1534C57.53 46.3778 57.6461 47.5679 57.9056 48.6926L65.7008 46.8938C65.5993 46.4541 65.5255 45.8595 65.5182 45.0787L57.5186 45.1534ZM57.9183 48.7457C58.1909 49.8576 58.6176 50.9561 59.272 51.9517L65.957 47.5572C65.9088 47.4838 65.7946 47.2748 65.6881 46.8407L57.9183 48.7457ZM59.272 51.9517C59.9461 52.977 60.8524 53.8686 62.0148 54.4887L65.7798 47.43C65.8475 47.4661 65.9011 47.507 65.9372 47.541C65.9718 47.5734 65.9756 47.5856 65.957 47.5572L59.272 51.9517ZM62.0415 54.5028C63.2278 55.1241 64.4913 55.3641 65.7158 55.3527L65.641 47.353C65.574 47.3537 65.5614 47.347 65.5903 47.3534C65.6217 47.3603 65.6809 47.378 65.7532 47.4159L62.0415 54.5028ZM65.7158 55.3527C66.9417 55.3412 68.1879 55.0656 69.3453 54.4202L65.449 47.4331C65.5197 47.3937 65.5845 47.3708 65.6306 47.3594C65.6745 47.3485 65.6822 47.3527 65.641 47.353L65.7158 55.3527ZM69.3189 54.4348C70.4833 53.7969 71.3888 52.8863 72.0539 51.8323L65.2879 47.5635C65.2743 47.5851 65.282 47.568 65.3193 47.532C65.3581 47.4946 65.4116 47.4535 65.4754 47.4185L69.3189 54.4348ZM72.0539 51.8323C72.6988 50.81 73.1019 49.688 73.3434 48.558L65.5201 46.8859C65.4298 47.3085 65.3256 47.5038 65.2879 47.5635L72.0539 51.8323ZM73.3361 48.5916C73.5912 47.4461 73.6915 46.2389 73.68 45.0024L65.6803 45.0772C65.6875 45.8459 65.6222 46.4267 65.5274 46.8523L73.3361 48.5916ZM92.9184 48.8971L89.129 47.6161L89.1247 47.629L89.1204 47.6418L92.9184 48.8971ZM91.1835 51.9896L88.1902 49.3363L88.1823 49.3452L88.1745 49.3542L91.1835 51.9896ZM88.4949 53.9699L90.1087 57.6299L90.1164 57.6265L90.124 57.6231L88.4949 53.9699ZM81.5635 54.0346L80.003 57.7177L80.0165 57.7234L80.03 57.729L81.5635 54.0346ZM78.811 52.1052L75.8678 54.814L75.8758 54.8226L75.8838 54.8312L78.811 52.1052ZM76.9206 40.0091L80.7099 41.29L80.7129 41.2811L76.9206 40.0091ZM78.6553 36.9029L75.662 34.2496L75.6541 34.2585L75.6462 34.2674L78.6553 36.9029ZM81.3578 34.9361L82.96 38.6012L82.9735 38.5953L82.9869 38.5893L81.3578 34.9361ZM88.3028 34.8712L86.7422 38.5543L86.7557 38.56L86.7693 38.5656L88.3028 34.8712ZM91.0278 36.7873L88.0685 39.4785L88.0765 39.4873L88.0846 39.496L91.0278 36.7873ZM92.8339 39.8604L89.066 41.2031L89.0692 41.2119L92.8339 39.8604ZM88.7043 41.2662L84.8169 42.2086L84.8194 42.2187L88.7043 41.2662ZM86.5968 38.1275L84.7409 41.671L84.7657 41.6839L84.7906 41.6966L86.5968 38.1275ZM83.0969 38.1602L84.9956 41.6809L85.0204 41.6675L85.0451 41.6538L83.0969 38.1602ZM81.8366 39.3615L78.4704 37.2008L78.4573 37.2212L78.4444 37.2419L81.8366 39.3615ZM81.0758 41.3375L77.1714 40.4679L77.1677 40.4846L77.1641 40.5014L81.0758 41.3375ZM81.1344 47.6126L77.2368 48.512L77.2429 48.5386L77.2494 48.5651L81.1344 47.6126ZM83.2285 50.7787L81.346 54.308L81.3593 54.3151L81.3727 54.3221L83.2285 50.7787ZM86.7284 50.746L84.8066 47.2379L84.7934 47.2451L84.7802 47.2525L86.7284 50.746ZM88.763 47.5413L84.8586 46.6717L84.8549 46.6885L84.8513 46.7052L88.763 47.5413ZM89.5011 43.9659L89.5094 44.8545L97.509 44.7798L97.5007 43.8912L89.5011 43.9659ZM89.5094 44.8545C89.5201 46.0012 89.3695 46.9048 89.129 47.6161L96.7077 50.178C97.2833 48.4753 97.5266 46.659 97.509 44.7798L89.5094 44.8545ZM89.1204 47.6418C88.8727 48.3913 88.5489 48.9317 88.1902 49.3363L94.1769 54.6429C95.3335 53.338 96.1662 51.8167 96.7163 50.1523L89.1204 47.6418ZM88.1745 49.3542C87.8093 49.7711 87.3848 50.0852 86.8658 50.3167L90.124 57.6231C91.6927 56.9235 93.0607 55.9174 94.1926 54.625L88.1745 49.3542ZM86.8811 50.3099C86.3997 50.5222 85.794 50.6649 85.0049 50.6723L85.0797 58.6719C86.8243 58.6556 88.5204 58.3302 90.1087 57.6299L86.8811 50.3099ZM85.0049 50.6723C84.2165 50.6796 83.5987 50.5485 83.097 50.3403L80.03 57.729C81.633 58.3944 83.3344 58.6882 85.0797 58.6719L85.0049 50.6723ZM83.1241 50.3516C82.592 50.1262 82.1395 49.81 81.7382 49.3791L75.8838 54.8312C77.0478 56.0811 78.4303 57.0513 80.003 57.7177L83.1241 50.3516ZM81.7543 49.3964C81.382 48.992 81.0406 48.4487 80.7698 47.6942L73.2403 50.3973C73.8304 52.0411 74.693 53.5375 75.8678 54.814L81.7543 49.3964ZM80.7698 47.6942C80.5161 46.9876 80.3486 46.0869 80.3379 44.9402L72.3382 45.015C72.3558 46.8942 72.633 48.7057 73.2403 50.3973L80.7698 47.6942ZM80.3379 44.9402L80.3296 44.0516L72.3299 44.1263L72.3382 45.015L80.3379 44.9402ZM80.3296 44.0516C80.3189 42.9049 80.4695 42.0013 80.7099 41.29L73.1312 38.7281C72.5557 40.4308 72.3124 42.2471 72.3299 44.1263L80.3296 44.0516ZM80.7129 41.2811C80.9742 40.5023 81.3067 39.9466 81.6644 39.5383L75.6462 34.2674C74.5068 35.5685 73.6828 37.0836 73.1282 38.737L80.7129 41.2811ZM81.6486 39.5562C82.0225 39.1344 82.449 38.8246 82.96 38.6012L79.7555 31.2711C78.1786 31.9604 76.8035 32.9618 75.662 34.2496L81.6486 39.5562ZM82.9869 38.5893C83.4777 38.3705 84.0833 38.2272 84.8612 38.2199L84.7865 30.2203C83.0307 30.2367 81.3256 30.5708 79.7286 31.2829L82.9869 38.5893ZM84.8612 38.2199C85.6392 38.2127 86.2474 38.3446 86.7422 38.5543L89.8633 31.1882C88.2534 30.506 86.5423 30.2039 84.7865 30.2203L84.8612 38.2199ZM86.7693 38.5656C87.2799 38.7776 87.701 39.0743 88.0685 39.4785L93.9871 34.0961C92.8258 32.8191 91.4302 31.8385 89.8363 31.1769L86.7693 38.5656ZM88.0846 39.496C88.4521 39.8953 88.7937 40.4387 89.066 41.2031L96.6018 38.5176C96.0131 36.8654 95.1506 35.3601 93.971 34.0785L88.0846 39.496ZM89.0692 41.2119C89.3229 41.9186 89.4904 42.8192 89.5011 43.9659L97.5007 43.8912C97.4832 42.0119 97.206 40.2005 96.5987 38.5088L89.0692 41.2119ZM93.0112 44.8218L93.0026 43.9058L85.003 43.9806L85.0115 44.8966L93.0112 44.8218ZM93.0026 43.9058C92.991 42.6645 92.8689 41.4542 92.5893 40.3137L84.8194 42.2187C84.9188 42.6242 84.9957 43.1985 85.003 43.9806L93.0026 43.9058ZM92.5917 40.3238C92.3203 39.2042 91.8911 38.088 91.2182 37.0817L84.5678 41.5282C84.5975 41.5726 84.7091 41.764 84.8169 42.2086L92.5917 40.3238ZM91.2182 37.0817C90.5237 36.0429 89.5891 35.1588 88.4029 34.5585L84.7906 41.6966C84.7217 41.6617 84.6616 41.6189 84.616 41.5774C84.5719 41.5373 84.5584 41.5142 84.5678 41.5282L91.2182 37.0817ZM88.4526 34.5841C87.2899 33.9751 86.0467 33.7223 84.8193 33.7338L84.8941 41.7335C84.935 41.7331 84.9311 41.7373 84.8939 41.7289C84.8547 41.72 84.8 41.7019 84.7409 41.671L88.4526 34.5841ZM84.8193 33.7338C83.597 33.7452 82.3296 34.0082 81.1488 34.6667L85.0451 41.6538C84.961 41.7006 84.8915 41.7231 84.8533 41.7324C84.8179 41.741 84.8267 41.7341 84.8941 41.7335L84.8193 33.7338ZM81.1983 34.6396C80.0367 35.266 79.1349 36.1656 78.4704 37.2008L85.2028 41.5223C85.2165 41.5009 85.2076 41.5196 85.1675 41.5577C85.1259 41.5974 85.0673 41.6422 84.9956 41.6809L81.1983 34.6396ZM78.4444 37.2419C77.8146 38.2498 77.4184 39.3589 77.1714 40.4679L84.9801 42.2071C85.083 41.745 85.1941 41.5368 85.2288 41.4812L78.4444 37.2419ZM77.1641 40.5014C76.9228 41.6304 76.8297 42.8274 76.8412 44.0568L84.8409 43.9821C84.8334 43.1881 84.8969 42.5972 84.9874 42.1735L77.1641 40.5014ZM76.8412 44.0568L76.8498 44.9728L84.8494 44.8981L84.8409 43.9821L76.8412 44.0568ZM76.8498 44.9728C76.8612 46.1972 76.9773 47.3873 77.2368 48.512L85.032 46.7132C84.9305 46.2735 84.8567 45.6788 84.8494 44.8981L76.8498 44.9728ZM77.2494 48.5651C77.5221 49.677 77.9488 50.7755 78.6032 51.7711L85.2882 47.3766C85.2399 47.3032 85.1257 47.0942 85.0193 46.6601L77.2494 48.5651ZM78.6032 51.7711C79.2772 52.7964 80.1836 53.688 81.346 54.308L85.111 47.2494C85.1787 47.2855 85.2323 47.3264 85.2684 47.3603C85.303 47.3928 85.3068 47.4049 85.2882 47.3766L78.6032 51.7711ZM81.3727 54.3221C82.559 54.9434 83.8225 55.1835 85.047 55.1721L84.9722 47.1724C84.9052 47.173 84.8926 47.1664 84.9215 47.1728C84.9529 47.1797 85.0121 47.1974 85.0844 47.2353L81.3727 54.3221ZM85.047 55.1721C86.2729 55.1606 87.519 54.885 88.6765 54.2395L84.7802 47.2525C84.8509 47.213 84.9157 47.1902 84.9618 47.1788C85.0057 47.1679 85.0134 47.172 84.9722 47.1724L85.047 55.1721ZM88.6501 54.2541C89.8144 53.6163 90.72 52.7057 91.385 51.6517L84.6191 47.3829C84.6055 47.4044 84.6132 47.3874 84.6505 47.3514C84.6893 47.314 84.7428 47.2728 84.8066 47.2379L88.6501 54.2541ZM91.385 51.6517C92.03 50.6294 92.4331 49.5074 92.6746 48.3774L84.8513 46.7052C84.761 47.1279 84.6568 47.3232 84.6191 47.3829L91.385 51.6517ZM92.6673 48.4109C92.9224 47.2655 93.0227 46.0582 93.0112 44.8218L85.0115 44.8966C85.0187 45.6652 84.9534 46.2461 84.8586 46.6717L92.6673 48.4109ZM109.288 50.7266L113.288 50.6893L113.25 46.6894L109.25 46.7268L109.288 50.7266ZM109.32 54.1718L109.357 58.1716L113.357 58.1342L113.32 54.1344L109.32 54.1718ZM99.2716 54.2657L95.2717 54.3031L95.3091 58.3029L99.3089 58.2655L99.2716 54.2657ZM99.2394 50.8205L99.202 46.8207L95.2022 46.8581L95.2395 50.8579L99.2394 50.8205ZM100.603 34.3461L104.603 34.3088L104.566 30.3089L100.566 30.3463L100.603 34.3461ZM100.789 54.2515L100.826 58.2513L104.826 58.214L104.789 54.2141L100.789 54.2515ZM96.3322 54.2932L92.3324 54.3305L92.3698 58.3303L96.3696 58.293L96.3322 54.2932ZM96.1462 34.3878L96.1089 30.3879L92.109 30.4253L92.1464 34.4251L96.1462 34.3878ZM105.288 50.764L105.32 54.2092L113.32 54.1344L113.288 50.6893L105.288 50.764ZM109.283 50.172L99.2342 50.2659L99.3089 58.2655L109.357 58.1716L109.283 50.172ZM103.271 54.2283L103.239 50.7832L95.2395 50.8579L95.2717 54.3031L103.271 54.2283ZM99.2767 54.8203L109.325 54.7265L109.25 46.7268L99.202 46.8207L99.2767 54.8203ZM96.6033 34.3835L96.7892 54.2889L104.789 54.2141L104.603 34.3088L96.6033 34.3835ZM100.752 50.2517L96.2949 50.2933L96.3696 58.293L100.826 58.2513L100.752 50.2517ZM100.332 54.2558L100.146 34.3504L92.1464 34.4251L92.3324 54.3305L100.332 54.2558ZM96.1836 38.3876L100.64 38.346L100.566 30.3463L96.1089 30.3879L96.1836 38.3876Z" fill="black" fill-opacity="0.48"/>
</svg>
